# xmcd
#
# Track frame offsets:
# 150
# 16288
# 29623
# 42105
# 54546
# 73172
# 88875
# 102128
# 118690
# 136812
# 154229
#
# Disc length: 2331 seconds
#
# Revision: 1
# Processed by: cddbd v1.5.2PL0 Copyright (c) Steve Scherf et al.
# Submitted via: TinyPlayer 2.8
#
DISCID=9309190b
DTITLE=Jace Everett - Jace Everett
DYEAR=2006
DGENRE=Country
TTITLE0=Everything I Want
TTITLE1=That's the Kind of Love I'm In
TTITLE2=Bad Things
TTITLE3=I Gotta Have It
TTITLE4=Half of My Mistakes
TTITLE5=The Other Kind
TTITLE6=A Little Less Lonely
TTITLE7=Gold
TTITLE8=Nowhere In the Neighborhood
TTITLE9=Between a Father and a Son
TTITLE10=Bad Things [Club Mix]
EXTD=Location:  - UPC: 828767675923 - Catalogue number: 82876 76759 2 - Label: Epic - ASIN: B000CNFBQ8 - Release Date: 2006 01 10 - Discogs: r2331654 - MUSICBRAINZ_ALBUMID: 436ba428-f6de-431d-b529-1f1fb7666664 - AMG: r788667 - Track 1 not listed on cover
EXTT0=
EXTT1=
EXTT2=
EXTT3=
EXTT4=
EXTT5=
EXTT6=
EXTT7=
EXTT8=
EXTT9=
EXTT10=
PLAYORDER=
